<svg width="23" height="23" viewBox="0 0 23 23" fill="none" xmlns="http://www.w3.org/2000/svg">
<path d="M11.7894 7.74115C12.5434 7.74115 13.1546 7.12678 13.1546 6.36893C13.1546 5.61107 12.5434 4.9967 11.7894 4.9967C11.0355 4.9967 10.4243 5.61107 10.4243 6.36893C10.4243 7.12678 11.0355 7.74115 11.7894 7.74115Z" fill="#D9D9D9"/>
<path d="M11.7894 13.23C12.5434 13.23 13.1546 12.6157 13.1546 11.8578C13.1546 11.1 12.5434 10.4856 11.7894 10.4856C11.0355 10.4856 10.4243 11.1 10.4243 11.8578C10.4243 12.6157 11.0355 13.23 11.7894 13.23Z" fill="#D9D9D9"/>
<path d="M11.7894 18.7189C12.5434 18.7189 13.1546 18.1046 13.1546 17.3467C13.1546 16.5889 12.5434 15.9745 11.7894 15.9745C11.0355 15.9745 10.4243 16.5889 10.4243 17.3467C10.4243 18.1046 11.0355 18.7189 11.7894 18.7189Z" fill="#D9D9D9"/>
</svg>
