<svg width="253" height="169" viewBox="0 0 253 169" fill="none" xmlns="http://www.w3.org/2000/svg">
<g clip-path="url(#clip0_6_7368)">
<path d="M135.37 136.818H195.698C199.721 136.818 202.982 133.553 202.982 129.525L202.982 7.49603C202.982 3.46831 199.721 0.203186 195.698 0.203186H135.37C131.347 0.203186 128.086 3.46831 128.086 7.49603V129.525C128.086 133.553 131.347 136.818 135.37 136.818Z" fill="white"/>
<path d="M195.699 137.021H135.37C131.241 137.021 127.883 133.659 127.883 129.525V7.49603C127.883 3.36245 131.241 0 135.37 0H195.699C199.827 0 203.186 3.36245 203.186 7.49603V129.526C203.186 133.66 199.827 137.022 195.699 137.022V137.021ZM135.37 0.406339C131.465 0.406339 128.288 3.58686 128.288 7.49603V129.526C128.288 133.435 131.465 136.616 135.37 136.616H195.699C199.603 136.616 202.78 133.435 202.78 129.526V7.49603C202.78 3.58686 199.603 0.406339 195.699 0.406339H135.37Z" fill="black"/>
<path d="M138.464 132.481H192.604C196.307 132.481 199.308 129.476 199.308 125.769L199.308 10.8751C199.308 7.16816 196.307 4.1631 192.604 4.1631H138.464C134.761 4.1631 131.76 7.16816 131.76 10.8751V125.769C131.76 129.476 134.761 132.481 138.464 132.481Z" fill="white"/>
<path d="M192.604 132.684H138.464C134.655 132.684 131.557 129.582 131.557 125.769V10.8751C131.557 7.06199 134.655 3.95996 138.464 3.95996H192.604C196.413 3.95996 199.511 7.06199 199.511 10.8751V125.769C199.511 129.582 196.413 132.684 192.604 132.684ZM138.464 4.3663C134.879 4.3663 131.963 7.2864 131.963 10.8751V125.769C131.963 129.358 134.879 132.278 138.464 132.278H192.604C196.188 132.278 199.105 129.358 199.105 125.769V10.8751C199.105 7.2864 196.188 4.3663 192.604 4.3663H138.464Z" fill="black"/>
<path d="M172.552 8.23202H157.667C157.556 8.23202 157.464 8.14152 157.464 8.02885C157.464 7.91619 157.555 7.82568 157.667 7.82568H172.552C172.664 7.82568 172.755 7.91619 172.755 8.02885C172.755 8.14152 172.665 8.23202 172.552 8.23202Z" fill="black"/>
<path d="M44.0362 4.04672H37.6724C37.5608 4.04672 37.4695 3.95622 37.4695 3.84355C37.4695 3.73088 37.5599 3.64038 37.6724 3.64038H44.0362C44.1478 3.64038 44.2391 3.73088 44.2391 3.84355C44.2391 3.95622 44.1487 4.04672 44.0362 4.04672Z" fill="black"/>
<path d="M28.9648 4.04672H0.202931C0.0913191 4.04672 0 3.95622 0 3.84355C0 3.73088 0.0903967 3.64038 0.202931 3.64038H28.9648C29.0764 3.64038 29.1677 3.73088 29.1677 3.84355C29.1677 3.95622 29.0773 4.04672 28.9648 4.04672Z" fill="black"/>
<path d="M44.0361 12.7461H19.2923C19.1807 12.7461 19.0894 12.6556 19.0894 12.5429C19.0894 12.4302 19.1798 12.3397 19.2923 12.3397H44.0361C44.1477 12.3397 44.239 12.4302 44.239 12.5429C44.239 12.6556 44.1486 12.7461 44.0361 12.7461Z" fill="black"/>
<path d="M13.458 12.7461H0.202931C0.0913191 12.7461 0 12.6546 0 12.5429C0 12.4311 0.0903967 12.3397 0.202931 12.3397H13.458C13.5696 12.3397 13.661 12.4302 13.661 12.5429C13.661 12.6556 13.5706 12.7461 13.458 12.7461Z" fill="black"/>
<path d="M147.504 73.9379H16.4375L43.3979 168.797H174.464L147.504 73.9379Z" fill="white"/>
<path d="M174.464 169H43.3977C43.3073 169 43.2271 168.94 43.2022 168.852L16.2418 73.9933C16.2243 73.9324 16.2372 73.8659 16.275 73.8151C16.3138 73.7643 16.3737 73.7347 16.4365 73.7347H147.503C147.594 73.7347 147.674 73.7948 147.699 73.8825L174.659 168.741C174.677 168.802 174.664 168.869 174.626 168.92C174.588 168.97 174.527 169 174.465 169H174.464ZM43.5509 168.594H174.195L147.351 74.1411H16.7058L43.5499 168.594H43.5509Z" fill="black"/>
<path d="M57.3114 111.353H39.3529L34.2427 93.3739H52.2012L57.3114 111.353Z" fill="#E2EAFF"/>
<path d="M79.4476 111.353H61.4891L56.3789 93.3739H74.3374L79.4476 111.353Z" fill="white"/>
<path d="M79.4475 111.557H61.489C61.3986 111.557 61.3183 111.497 61.2934 111.409L56.1832 93.4294C56.1657 93.3684 56.1786 93.3019 56.2164 93.2511C56.2552 93.2003 56.3151 93.1708 56.3779 93.1708H74.3364C74.4268 93.1708 74.507 93.2308 74.5319 93.3185L79.6421 111.298C79.6596 111.359 79.6467 111.426 79.6089 111.476C79.5711 111.527 79.5102 111.557 79.4475 111.557ZM61.6421 111.15H79.179L74.1842 93.5771H56.6472L61.6421 111.15Z" fill="black"/>
<path d="M101.584 111.353H83.6251L78.5149 93.3739H96.4734L101.584 111.353Z" fill="white"/>
<path d="M101.583 111.557H83.625C83.5346 111.557 83.4543 111.497 83.4294 111.409L78.3192 93.4294C78.3017 93.3684 78.3146 93.3019 78.3524 93.2511C78.3912 93.2003 78.4511 93.1708 78.5139 93.1708H96.4724C96.5628 93.1708 96.643 93.2308 96.6679 93.3185L101.778 111.298C101.796 111.359 101.783 111.426 101.745 111.476C101.706 111.527 101.646 111.557 101.583 111.557ZM83.7781 111.15H101.315L96.3202 93.5771H78.7832L83.7781 111.15Z" fill="black"/>
<path d="M123.72 111.353H105.761L100.651 93.3739H118.61L123.72 111.353Z" fill="white"/>
<path d="M123.72 111.557H105.761C105.671 111.557 105.591 111.497 105.566 111.409L100.455 93.4294C100.438 93.3684 100.451 93.3019 100.489 93.2511C100.527 93.2003 100.587 93.1708 100.65 93.1708H118.609C118.699 93.1708 118.779 93.2308 118.804 93.3185L123.914 111.298C123.932 111.359 123.919 111.426 123.881 111.476C123.842 111.527 123.782 111.557 123.72 111.557ZM105.914 111.15H123.451L118.456 93.5771H100.919L105.914 111.15Z" fill="black"/>
<path d="M145.856 111.353H127.898L122.787 93.3739H140.746L145.856 111.353Z" fill="white"/>
<path d="M145.856 111.557H127.897C127.807 111.557 127.727 111.497 127.702 111.409L122.592 93.4294C122.574 93.3684 122.587 93.3019 122.625 93.2511C122.664 93.2003 122.724 93.1708 122.786 93.1708H140.745C140.835 93.1708 140.915 93.2308 140.94 93.3185L146.051 111.298C146.068 111.359 146.055 111.426 146.017 111.476C145.979 111.527 145.919 111.557 145.856 111.557ZM128.051 111.15H145.587L140.593 93.5771H123.056L128.051 111.15Z" fill="black"/>
<path d="M63.3652 132.857H45.4067C45.3163 132.857 45.2361 132.797 45.2111 132.709L40.101 114.73C40.0834 114.669 40.0964 114.602 40.1342 114.552C40.1729 114.501 40.2329 114.471 40.2956 114.471H58.2541C58.3445 114.471 58.4247 114.531 58.4496 114.619L63.5598 132.599C63.5774 132.659 63.5644 132.726 63.5266 132.777C63.4888 132.828 63.4279 132.857 63.3652 132.857ZM45.5598 132.451H63.0968L58.1019 114.878H40.5649L45.5598 132.451Z" fill="black"/>
<path d="M63.3653 132.654H45.4068L40.2966 114.674H58.2551L63.3653 132.654Z" fill="white"/>
<path d="M63.3652 132.857H45.4067C45.3163 132.857 45.2361 132.797 45.2111 132.709L40.101 114.73C40.0834 114.669 40.0964 114.602 40.1342 114.552C40.1729 114.501 40.2329 114.471 40.2956 114.471H58.2541C58.3445 114.471 58.4247 114.531 58.4496 114.619L63.5598 132.599C63.5774 132.659 63.5644 132.726 63.5266 132.777C63.4888 132.828 63.4279 132.857 63.3652 132.857ZM45.5598 132.451H63.0968L58.1019 114.878H40.5649L45.5598 132.451Z" fill="black"/>
<path d="M85.5015 132.654H67.543L62.4329 114.674H80.3914L85.5015 132.654Z" fill="white"/>
<path d="M85.5014 132.857H67.5429C67.4525 132.857 67.3723 132.797 67.3474 132.709L62.2372 114.73C62.2197 114.669 62.2326 114.602 62.2704 114.552C62.3091 114.501 62.3691 114.471 62.4318 114.471H80.3903C80.4807 114.471 80.561 114.531 80.5859 114.619L85.6961 132.599C85.7136 132.659 85.7007 132.726 85.6629 132.777C85.6241 132.828 85.5642 132.857 85.5014 132.857ZM67.6961 132.451H85.233L80.2381 114.878H62.7012L67.6961 132.451Z" fill="black"/>
<path d="M107.638 132.654H89.679L84.5688 114.674H102.527L107.638 132.654Z" fill="white"/>
<path d="M107.637 132.857H89.6789C89.5885 132.857 89.5083 132.797 89.4834 132.709L84.3732 114.73C84.3557 114.669 84.3686 114.602 84.4064 114.552C84.4451 114.501 84.5051 114.471 84.5678 114.471H102.526C102.617 114.471 102.697 114.531 102.722 114.619L107.832 132.599C107.85 132.659 107.837 132.726 107.799 132.777C107.76 132.828 107.7 132.857 107.637 132.857ZM89.832 132.451H107.369L102.374 114.878H84.8372L89.832 132.451Z" fill="black"/>
<path d="M129.774 132.654H111.815L106.705 114.674H124.664L129.774 132.654Z" fill="white"/>
<path d="M129.774 132.857H111.815C111.725 132.857 111.644 132.797 111.62 132.709L106.509 114.73C106.492 114.669 106.505 114.602 106.543 114.552C106.581 114.501 106.641 114.471 106.704 114.471H124.663C124.753 114.471 124.833 114.531 124.858 114.619L129.968 132.599C129.986 132.659 129.973 132.726 129.935 132.777C129.896 132.828 129.836 132.857 129.774 132.857ZM111.968 132.451H129.505L124.51 114.878H106.973L111.968 132.451Z" fill="black"/>
<path d="M151.91 132.654H133.951L128.841 114.674H146.8L151.91 132.654Z" fill="white"/>
<path d="M151.91 132.857H133.951C133.861 132.857 133.78 132.797 133.756 132.709L128.645 114.73C128.628 114.669 128.641 114.602 128.679 114.552C128.717 114.501 128.777 114.471 128.84 114.471H146.799C146.889 114.471 146.969 114.531 146.994 114.619L152.104 132.599C152.122 132.659 152.109 132.726 152.071 132.777C152.032 132.828 151.972 132.857 151.91 132.857ZM134.104 132.451H151.641L146.646 114.878H129.109L134.104 132.451Z" fill="black"/>
<path d="M69.419 153.954H51.4605L46.3503 135.975H64.3088L69.419 153.954Z" fill="white"/>
<path d="M69.4189 154.158H51.4604C51.37 154.158 51.2898 154.098 51.2649 154.01L46.1547 136.03C46.1372 135.969 46.1501 135.903 46.1879 135.852C46.2266 135.801 46.2866 135.772 46.3493 135.772H64.3078C64.3982 135.772 64.4785 135.832 64.5034 135.919L69.6135 153.899C69.6311 153.96 69.6182 154.027 69.5803 154.077C69.5416 154.128 69.4816 154.158 69.4189 154.158ZM51.6135 153.751H69.1505L64.1556 136.178H46.6187L51.6135 153.751Z" fill="black"/>
<path d="M69.419 153.954H51.4605L46.3503 135.975H64.3088L69.419 153.954Z" fill="white"/>
<path d="M69.4189 154.158H51.4604C51.37 154.158 51.2898 154.098 51.2649 154.01L46.1547 136.03C46.1372 135.969 46.1501 135.903 46.1879 135.852C46.2266 135.801 46.2866 135.772 46.3493 135.772H64.3078C64.3982 135.772 64.4785 135.832 64.5034 135.919L69.6135 153.899C69.6311 153.96 69.6182 154.027 69.5803 154.077C69.5416 154.128 69.4816 154.158 69.4189 154.158ZM51.6135 153.751H69.1505L64.1556 136.178H46.6187L51.6135 153.751Z" fill="black"/>
<path d="M91.5553 153.954H73.5968L68.4866 135.975H86.4451L91.5553 153.954Z" fill="white"/>
<path d="M91.5551 154.158H73.5966C73.5062 154.158 73.426 154.098 73.4011 154.01L68.2909 136.03C68.2734 135.969 68.2863 135.903 68.3241 135.852C68.3629 135.801 68.4228 135.772 68.4855 135.772H86.444C86.5344 135.772 86.6147 135.832 86.6396 135.919L91.7498 153.899C91.7673 153.96 91.7544 154.027 91.7166 154.077C91.6778 154.128 91.6179 154.158 91.5551 154.158ZM73.7498 153.751H91.2867L86.2918 136.178H68.7549L73.7498 153.751Z" fill="black"/>
<path d="M113.691 153.954H95.7327L90.6226 135.975H108.581L113.691 153.954Z" fill="#E2EAFF"/>
<path d="M40.2965 169H0.202839C0.142882 169 0.0866144 168.973 0.047873 168.928C0.00913155 168.882 -0.00747192 168.822 0.00267464 168.763L16.2372 73.9038C16.2565 73.793 16.3608 73.7191 16.4715 73.7376C16.5822 73.757 16.656 73.8613 16.6375 73.9721L0.443589 168.594H40.2965C40.4081 168.594 40.4995 168.684 40.4995 168.797C40.4995 168.91 40.4091 169 40.2965 169Z" fill="black"/>
<path d="M240.186 169H160.573C160.461 169 160.37 168.909 160.37 168.797C160.37 168.684 160.461 168.594 160.573 168.594H240.186C240.297 168.594 240.389 168.684 240.389 168.797C240.389 168.909 240.298 169 240.186 169Z" fill="black"/>
<path d="M189.759 104.248H222.468C226.424 104.248 229.635 107.464 229.635 111.424V144.171C229.635 148.132 226.423 151.346 222.468 151.346H189.759C185.803 151.346 182.592 148.131 182.592 144.171V111.424C182.592 107.463 185.804 104.248 189.759 104.248Z" fill="#5479F7"/>
<path d="M189.676 127.797C189.676 129.577 191.117 131.019 192.895 131.019C193.028 131.019 193.157 131.009 193.286 130.993C193.607 132.286 194.116 133.505 194.786 134.616C194.684 134.696 194.584 134.781 194.491 134.874C193.234 136.132 193.234 138.172 194.491 139.431C195.749 140.688 197.786 140.688 199.043 139.431C199.137 139.337 199.221 139.237 199.302 139.136C200.412 139.805 201.63 140.315 202.921 140.637C202.906 140.765 202.895 140.895 202.895 141.027C202.895 142.807 204.336 144.249 206.115 144.249C207.893 144.249 209.334 142.807 209.334 141.027C209.334 140.894 209.324 140.765 209.308 140.637C210.6 140.316 211.817 139.806 212.928 139.136C213.007 139.237 213.092 139.337 213.186 139.431C214.443 140.688 216.481 140.688 217.738 139.431C218.995 138.173 218.995 136.133 217.738 134.874C217.644 134.781 217.545 134.696 217.444 134.616C218.113 133.504 218.623 132.286 218.944 130.993C219.072 131.009 219.202 131.019 219.334 131.019C221.111 131.019 222.553 129.577 222.553 127.797C222.553 126.018 221.112 124.575 219.334 124.575C219.201 124.575 219.072 124.585 218.944 124.601C218.623 123.308 218.113 122.089 217.444 120.978C217.545 120.899 217.645 120.814 217.738 120.72C218.995 119.463 218.995 117.423 217.738 116.164C216.481 114.906 214.443 114.906 213.186 116.164C213.092 116.257 213.008 116.357 212.928 116.459C211.817 115.789 210.599 115.279 209.308 114.958C209.324 114.829 209.334 114.699 209.334 114.567C209.334 112.788 207.893 111.345 206.115 111.345C204.336 111.345 202.895 112.788 202.895 114.567C202.895 114.7 202.906 114.829 202.921 114.958C201.629 115.278 200.412 115.788 199.302 116.459C199.222 116.357 199.137 116.257 199.043 116.164C197.786 114.906 195.749 114.906 194.491 116.164C193.234 117.422 193.234 119.462 194.491 120.72C194.585 120.814 194.684 120.899 194.786 120.978C194.116 122.09 193.607 123.308 193.286 124.601C193.157 124.585 193.027 124.575 192.895 124.575C191.118 124.575 189.676 126.018 189.676 127.797ZM200.136 127.797C200.136 124.493 202.812 121.814 206.114 121.814C209.415 121.814 212.092 124.493 212.092 127.797C212.092 131.101 209.415 133.781 206.114 133.781C202.812 133.781 200.136 131.101 200.136 127.797Z" fill="white"/>
<path d="M63.4639 22.2794L59.6488 33.4472C59.4052 34.1611 58.7983 34.6893 58.0594 34.8334L56.3604 35.164C56.3604 35.164 60.7769 44.7628 68.2208 43.155C75.6647 41.5472 74.0274 35.164 74.0274 35.164L72.4528 35.0366C71.5101 34.9599 70.8635 34.0512 71.1005 33.1342L72.8707 26.2707C72.8707 26.2707 65.6574 20.4499 63.4648 22.2785L63.4639 22.2794Z" fill="white"/>
<path d="M66.5659 43.5383C60.0712 43.5383 56.2173 35.3394 56.1758 35.2489C56.15 35.1926 56.1509 35.127 56.1795 35.0716C56.2081 35.0162 56.2607 34.9765 56.3216 34.9645L58.0207 34.6339C58.6866 34.5046 59.2373 34.0244 59.4569 33.3807L63.272 22.2129C63.284 22.1778 63.3052 22.1464 63.3338 22.1224C65.6287 20.2107 72.6972 25.8708 72.997 26.1128C73.0588 26.1627 73.0865 26.2448 73.0662 26.3215L71.2961 33.1849C71.1983 33.5636 71.2721 33.9644 71.499 34.283C71.7259 34.6016 72.0792 34.8029 72.4684 34.8343L74.043 34.9617C74.1297 34.9691 74.2017 35.0301 74.2229 35.1141C74.2505 35.2222 74.8852 37.7867 73.4444 40.1204C72.4454 41.7393 70.7011 42.8281 68.2622 43.3545C67.6783 43.481 67.112 43.5392 66.565 43.5392L66.5659 43.5383ZM56.6592 35.3127C57.3971 36.7598 61.6245 44.3722 68.1774 42.9565C70.5028 42.4541 72.1576 41.429 73.0975 39.9098C74.2644 38.0231 73.9664 35.9102 73.8604 35.3542L72.4362 35.2388C71.927 35.1972 71.4649 34.935 71.1688 34.5185C70.8727 34.102 70.7758 33.5793 70.9031 33.0833L72.64 26.3474C70.6061 24.7266 65.3483 21.1084 63.6363 22.4003L59.8397 33.5118C59.5731 34.2922 58.9053 34.8749 58.0963 35.0319L56.6582 35.3117L56.6592 35.3127Z" fill="black"/>
<path d="M79.5398 8.39367C80.1919 11.6158 77.6866 14.5368 75.519 15.0752C75.4424 15.0946 75.3649 15.1112 75.2902 15.1278C75.2441 15.2876 75.1869 15.4473 75.1149 15.6043C74.2626 17.4717 71.8228 18.3804 69.7742 18.1938C69.1801 18.8301 68.4062 19.7157 67.5862 20.836C64.9665 24.4127 63.1069 22.8039 60.3849 19.2632C60.0224 18.7913 59.5003 18.1901 59.2291 17.1918C58.6904 15.2091 59.6221 13.424 59.7401 13.2051C60.6284 11.5603 61.7713 11.6213 64.2839 9.93222C68.1037 7.36397 68.1701 5.40062 71.4539 4.2915C72.3228 3.99783 73.4168 3.6432 74.7829 3.89347C76.7698 4.25825 79.0251 5.84944 79.5398 8.3946V8.39367Z" fill="black"/>
<path d="M66.0639 24.0155C66.0639 24.0155 67.9124 28.2885 72.7542 27.4989C77.596 26.7094 77.7186 20.5441 77.286 13.9928C76.8018 14.6115 75.7188 15.0881 74.8628 15.4528C71.3807 16.9351 68.2491 14.992 67.7879 14.7427C68.6172 15.7631 68.619 17.1484 67.9198 18.0867C67.5343 18.6047 66.979 18.9778 65.6931 19C65.6931 19 64.9081 16.948 63.0818 18.1393C61.2554 19.3306 61.9343 24.3563 66.063 24.0155H66.0639Z" fill="white"/>
<path d="M71.5985 27.7991C67.9706 27.7991 66.278 24.8873 65.9413 24.228C64.1334 24.3268 62.7249 23.4042 62.1548 21.7401C61.6392 20.2311 61.9897 18.6103 62.9711 17.9703C63.5615 17.5852 64.1186 17.4735 64.6278 17.6397C65.3067 17.8604 65.6858 18.5106 65.8232 18.795C67.0113 18.7488 67.4559 18.3711 67.7566 17.9666C68.4291 17.0635 68.3765 15.7909 67.6293 14.872C67.5685 14.7972 67.5685 14.6892 67.6303 14.6143C67.6921 14.5395 67.7981 14.5192 67.883 14.5654L67.978 14.618C70.9473 16.285 73.3169 15.8906 74.7827 15.2673C75.528 14.9496 76.6552 14.4703 77.1256 13.8691C77.1773 13.8026 77.2649 13.7749 77.3451 13.7998C77.4254 13.8248 77.4826 13.8968 77.4881 13.9808C77.8967 20.1812 77.905 26.8664 72.7866 27.7012C72.3696 27.7696 71.973 27.8 71.5985 27.8V27.7991ZM66.064 23.8124C66.1442 23.8124 66.218 23.8604 66.2503 23.9343C66.3232 24.1024 68.097 28.0522 72.722 27.2986C77.3848 26.5385 77.4798 20.3502 77.1136 14.4601C76.5694 14.9246 75.7512 15.2959 74.9432 15.6394C73.4913 16.2573 71.2028 16.6645 68.358 15.2737C68.8017 16.2351 68.7159 17.3599 68.0841 18.2086C67.5795 18.8864 66.8656 19.1838 65.6987 19.2041C65.6185 19.206 65.5364 19.1533 65.5059 19.0739C65.5022 19.0656 65.1776 18.2428 64.5024 18.0248C64.1168 17.9002 63.6759 17.9962 63.1944 18.3102C62.3771 18.843 62.0902 20.292 62.5404 21.608C62.7903 22.3376 63.6334 24.0137 66.0483 23.8133C66.0538 23.8133 66.0594 23.8133 66.0649 23.8133L66.064 23.8124Z" fill="black"/>
<path d="M65.779 22.2877C65.6951 22.2877 65.6158 22.2351 65.5872 22.1501C65.483 21.8435 65.3741 21.5277 65.1905 21.271C65.0042 21.0105 64.745 20.8452 64.4978 20.8286C64.3862 20.8212 64.3013 20.7242 64.3096 20.6116C64.317 20.4998 64.4139 20.4158 64.5264 20.4232C64.8981 20.449 65.2607 20.6716 65.5208 21.0345C65.7394 21.3402 65.863 21.7013 65.9718 22.0199C66.0078 22.1261 65.9515 22.2415 65.8455 22.2776C65.8233 22.285 65.8012 22.2886 65.78 22.2886L65.779 22.2877Z" fill="black"/>
<path d="M66.9496 17.2048C66.9496 17.2048 67.7383 20.6337 69.4457 22.0698C71.1531 23.5058 73.6519 20.3982 77.5426 20.3733C77.5426 20.3733 77.6496 26.4139 76.7826 27.7428C75.6876 29.4208 67.0013 29.9943 65.9829 24.1615C65.9829 24.1615 66.9072 21.355 65.613 19.146L66.9487 17.2039L66.9496 17.2048Z" fill="black"/>
<path d="M90.6743 38.0537C88.4725 35.0754 75.9857 34.6312 73.0506 34.4807C72.8892 35.0098 72.6632 35.5215 72.3699 36.0044C71.5194 37.4063 70.1865 38.485 68.7023 39.1545C67.2172 39.825 65.5541 40.1279 63.9307 39.9321C62.3414 39.74 60.8286 39.0621 59.73 37.8773C58.8343 36.9113 57.7597 35.744 57.4848 34.4779C54.8218 34.6294 48.5236 34.8501 46.0238 35.2416C41.254 35.9897 37.1456 38.8821 34.5407 42.9519C28.8568 51.8304 22.5364 61.2048 22.5364 72.0172C22.5364 84.3107 52.0149 83.2432 52.0149 83.2432H80.7555L84.5485 73.4661C84.5485 73.4661 98.3192 48.3904 90.6743 38.0537Z" fill="#5479F7"/>
<path d="M119.805 42.032C120.018 44.5061 120.451 46.9579 121.193 49.3295C121.582 50.5762 122.04 51.8054 122.619 52.9773C123.187 54.127 123.856 55.226 124.581 56.2834C124.779 56.5715 124.981 56.8569 125.185 57.1395C134.593 49.9344 141.795 41.7337 141.795 41.7337C147.122 40.6902 145.505 38.1099 145.505 38.1099C147.282 35.9018 145.361 34.7456 145.361 34.7456C146.155 31.4589 142.906 31.4672 142.906 31.4672C146.577 29.26 150.075 24.4939 140.679 28.1361C135.126 30.2888 126.973 35.2803 119.667 39.714C119.695 40.4879 119.738 41.2609 119.804 42.0329L119.805 42.032Z" fill="white"/>
<path d="M125.931 56.7655C125.886 56.7655 125.842 56.7508 125.804 56.7203C125.717 56.6501 125.704 56.5217 125.774 56.4349C126.028 56.1182 126.316 55.9575 126.621 55.7866C126.714 55.7349 126.809 55.6823 126.907 55.6222C132.69 50.7268 137.529 46.1287 141.701 41.5657C141.731 41.5334 141.77 41.5112 141.813 41.5029C142.977 41.2813 144.077 41.0716 144.869 40.2876C145.259 39.872 145.843 39.0372 145.319 38.1811C145.27 38.1007 145.282 37.9964 145.349 37.9299C146.142 37.1458 146.145 35.7781 145.358 34.8796C145.1 34.6385 145.187 34.2821 145.263 33.9672C145.308 33.7788 145.355 33.5848 145.329 33.4204C145.021 31.9835 143.673 31.7055 142.897 31.6686C142.88 31.6686 142.863 31.6649 142.848 31.6603H142.845C142.823 31.652 142.802 31.6409 142.783 31.627C142.765 31.6122 142.749 31.5956 142.736 31.5753C142.725 31.5568 142.717 31.5374 142.711 31.5162C142.706 31.4996 142.705 31.482 142.705 31.4654V31.4636V31.4617C142.705 31.4405 142.709 31.4192 142.716 31.3989C142.725 31.3721 142.739 31.3481 142.758 31.3278C142.77 31.3149 142.783 31.3038 142.798 31.2946L143.124 31.0849C144.61 30.1337 146.293 29.056 146.484 27.2903C146.426 27.2072 146.273 27.1314 146.19 27.0917C144.878 26.8793 143.611 27.2644 142.386 27.6366C142.222 27.6865 142.059 27.7363 141.897 27.7834C135.464 30.2436 129.937 33.6467 124.087 37.2483C122.986 37.9262 121.849 38.6262 120.718 39.3114C120.622 39.3696 120.497 39.3391 120.439 39.2431C120.381 39.1471 120.412 39.0224 120.508 38.9642C121.637 38.2799 122.774 37.5799 123.874 36.903C129.741 33.2902 135.283 29.8788 141.766 27.3992C141.942 27.3466 142.104 27.2977 142.267 27.2478C143.545 26.8599 144.867 26.4582 146.282 26.6955C146.299 26.6983 146.317 26.7039 146.333 26.7112C146.48 26.7787 146.784 26.9199 146.88 27.1813C146.891 27.2099 146.895 27.2395 146.892 27.27C146.727 29.1123 145.124 30.2741 143.698 31.1976C143.676 31.2336 143.619 31.2826 143.545 31.3352C144.728 31.5596 145.494 32.2587 145.726 33.3466C145.767 33.6015 145.707 33.8462 145.655 34.0623C145.589 34.3356 145.553 34.5083 145.648 34.597C146.551 35.6258 146.574 37.1588 145.74 38.1044C146.127 38.8682 145.919 39.7575 145.158 40.5692C144.29 41.429 143.106 41.6673 141.954 41.8871C137.777 46.4501 132.936 51.0472 127.156 55.9399C127.149 55.9464 127.14 55.9529 127.132 55.9575C127.024 56.024 126.919 56.0821 126.819 56.1385C126.537 56.2955 126.295 56.4322 126.089 56.687C126.05 56.7369 125.99 56.7628 125.931 56.7628V56.7655Z" fill="black"/>
<path d="M133.461 40.1269C133.089 40.1269 132.712 40.0345 132.38 39.8018C132.289 39.7372 132.266 39.6107 132.33 39.5192C132.395 39.4278 132.521 39.4056 132.613 39.4694C133.242 39.9108 134.095 39.703 134.635 39.3909C135.157 39.0889 135.596 38.6336 136.02 38.194C136.131 38.0795 136.241 37.9641 136.354 37.8523C136.87 37.3361 137.573 36.7247 138.446 36.5733C138.86 36.5012 139.274 36.5391 139.676 36.5751C139.852 36.5908 140.034 36.6074 140.211 36.6139C140.668 36.6296 141.284 36.5631 141.626 36.1512C142.059 35.6267 141.798 34.7447 141.275 34.3052C140.707 33.8286 139.913 33.6901 139.141 33.6116C137 33.3946 135.067 33.5451 133.395 34.0595C133.288 34.0928 133.174 34.0318 133.141 33.9247C133.108 33.8176 133.169 33.704 133.276 33.6707C135 33.1406 136.988 32.9846 139.182 33.2071C140.02 33.2921 140.884 33.4463 141.537 33.9939C142.208 34.5564 142.537 35.6867 141.939 36.4098C141.494 36.9482 140.747 37.0396 140.198 37.0193C140.01 37.0129 139.822 36.9953 139.641 36.9796C139.249 36.9436 138.879 36.9103 138.517 36.9731C137.756 37.1052 137.116 37.6658 136.643 38.1386C136.532 38.2494 136.423 38.3621 136.313 38.4757C135.87 38.9356 135.41 39.4112 134.839 39.7418C134.469 39.956 133.97 40.1269 133.463 40.1269H133.461Z" fill="black"/>
<path d="M139.722 38.4996C139.394 38.4996 139.026 38.4461 138.704 38.2494C138.241 37.9659 137.941 37.3157 138.233 36.8004C138.288 36.7025 138.412 36.6683 138.51 36.7238C138.607 36.7792 138.642 36.9029 138.586 37.0008C138.418 37.2982 138.621 37.7221 138.916 37.9021C139.201 38.0767 139.583 38.1284 140.119 38.0674C141.995 37.8523 143.719 36.685 144.615 35.0208C144.669 34.922 144.791 34.8851 144.89 34.9386C144.989 34.9922 145.026 35.115 144.972 35.2138C144.014 36.9934 142.172 38.242 140.165 38.471C140.034 38.4858 139.882 38.4987 139.722 38.4987V38.4996Z" fill="black"/>
<path d="M141.732 39.7778C141.688 39.7778 141.644 39.7778 141.6 39.7759C141.098 39.7621 140.727 39.6633 140.434 39.4656C140.029 39.1923 139.82 38.7121 139.926 38.2965C139.954 38.1875 140.065 38.1219 140.174 38.1506C140.282 38.1783 140.348 38.2891 140.319 38.3981C140.247 38.6788 140.436 38.978 140.661 39.1295C140.888 39.2819 141.189 39.3585 141.611 39.3705C142.792 39.4019 143.966 38.9605 144.832 38.1561C144.914 38.0795 145.042 38.085 145.119 38.1672C145.195 38.2494 145.19 38.3778 145.108 38.4544C144.197 39.3003 142.973 39.7787 141.732 39.7787V39.7778Z" fill="black"/>
<path d="M142.145 41.3792C141.718 41.3792 141.299 41.1252 141.102 40.7456C140.904 40.3624 140.939 39.8702 141.19 39.5192C141.256 39.4278 141.382 39.4075 141.473 39.4721C141.565 39.5377 141.585 39.6642 141.52 39.7557C141.356 39.9847 141.333 40.307 141.463 40.5582C141.593 40.8084 141.862 40.9784 142.151 40.9728H142.153C142.265 40.9728 142.355 41.0624 142.356 41.1741C142.357 41.2859 142.266 41.3782 142.155 41.3792H142.146H142.145Z" fill="black"/>
<path d="M120.613 39.1396L112.995 43.5004C108.755 45.9273 103.621 46.2136 99.1391 44.2724L89.4086 36.9777C87.2012 35.6996 78.7095 39.316 78.2769 41.0596C77.7345 43.2464 77.3148 45.4637 77.0445 47.7014C76.7982 49.7358 76.6387 51.7805 76.7438 53.8297C76.8047 55.0155 76.9348 56.1911 77.1073 57.3612C79.7906 58.9542 97.2039 68.8753 109.983 66.0245C118.781 64.0611 129.012 54.2988 129.012 54.2988C129.012 54.2988 128.945 43.3877 120.612 39.1415L120.613 39.1396Z" fill="#5479F7"/>
<path d="M49.3934 81.2438C49.1766 82.7103 52.014 83.6486 52.014 83.6486H60.8074L73.9029 81.5568C73.9029 81.5568 74.9249 64.6642 56.4111 66.7051C56.4111 66.7051 50.8241 71.5711 49.3934 81.2428V81.2438Z" fill="white"/>
<path d="M64.2582 81.8265C64.2481 81.8265 64.2388 81.8265 64.2287 81.8247C64.118 81.8081 64.0405 81.7056 64.0571 81.5947C64.1927 80.6666 63.9741 79.6332 63.4428 78.6867C62.9954 77.8897 62.3331 77.137 61.4181 76.3862C61.2465 76.2459 61.062 76.1009 60.8573 76.0104C60.7549 75.9651 60.7078 75.846 60.753 75.7425C60.7982 75.64 60.9182 75.5929 61.0205 75.6382C61.2724 75.749 61.491 75.9199 61.6764 76.0713C62.632 76.8544 63.3257 77.645 63.7979 78.4872C64.3726 79.5123 64.6078 80.6362 64.4593 81.6529C64.4445 81.7536 64.3578 81.8265 64.2591 81.8265H64.2582Z" fill="black"/>
<path d="M68.4911 81.5837C68.3915 81.5837 68.3047 81.5107 68.2909 81.4091C68.1332 80.2917 67.9053 78.9859 67.4192 77.765C66.9184 76.5072 66.1832 75.4812 65.2931 74.7978C65.2045 74.7295 65.1879 74.602 65.2562 74.5134C65.3244 74.4247 65.4517 74.4081 65.5403 74.4764C66.4876 75.2051 67.267 76.2902 67.7956 77.6154C68.2983 78.876 68.5307 80.2123 68.6922 81.3528C68.7078 81.4636 68.6304 81.567 68.5197 81.5827C68.5105 81.5846 68.5003 81.5846 68.4911 81.5846V81.5837Z" fill="black"/>
<path d="M71.8819 81.5836C71.8736 81.5836 71.8653 81.5836 71.8579 81.5818C71.7463 81.5688 71.667 81.4672 71.6808 81.3555C72.2481 76.5995 69.1405 73.6434 69.1091 73.6138C69.027 73.5372 69.0224 73.4088 69.099 73.3266C69.1755 73.2444 69.3038 73.2398 69.3859 73.3165C69.4191 73.3469 72.6752 76.4443 72.0839 81.4035C72.0719 81.5069 71.9843 81.5827 71.8828 81.5827L71.8819 81.5836Z" fill="black"/>
<path d="M105.881 84.1196H58.1149C57.8317 84.1196 57.5494 84.0466 57.316 83.8859C56.77 83.5101 56.5799 82.8368 56.7958 82.2587C57.3594 81.0757 58.5235 80.6602 60.2447 80.6602H109.016L108.383 82.3825C107.993 83.427 106.995 84.1196 105.881 84.1196Z" fill="black"/>
<path d="M106.151 84.1196C107.107 84.1196 107.966 83.5368 108.319 82.6484L116.775 61.4015C116.999 60.8382 116.93 60.1991 116.589 59.6968C116.249 59.1944 115.683 58.8933 115.077 58.8933H85.7199C83.9508 58.8933 82.3734 60.0089 81.7831 61.6786L73.8457 84.1186H106.151V84.1196Z" fill="black"/>
<path d="M106.839 81.0711H77.7327C77.6211 81.0711 77.5298 80.9806 77.5298 80.868C77.5298 80.7553 77.6202 80.6648 77.7327 80.6648H106.839C106.95 80.6648 107.042 80.7553 107.042 80.868C107.042 80.9806 106.951 81.0711 106.839 81.0711Z" fill="white"/>
<path d="M34.096 67.2158C33.9853 67.2158 33.8959 67.1271 33.8931 67.0163C33.8912 66.9046 33.9798 66.8113 34.0923 66.8095L55.449 66.404C55.5588 66.4003 55.6538 66.4909 55.6556 66.6035C55.6575 66.7153 55.5689 66.8085 55.4564 66.8104L34.0997 67.2158H34.096Z" fill="black"/>
<path d="M41.2282 66.0024C41.2089 66.0024 41.1895 65.9996 41.1701 65.9941C41.0631 65.9617 41.0022 65.8482 41.0345 65.741C41.8131 63.1451 42.8877 60.6341 44.2279 58.2792C44.5102 57.7823 44.9686 57.1257 45.6651 57.1479C45.7767 57.1516 45.8652 57.2458 45.8615 57.3575C45.8578 57.4693 45.7647 57.5561 45.6521 57.5542C45.2869 57.5413 44.9474 57.8368 44.5812 58.4805C43.2566 60.8096 42.194 63.291 41.4238 65.8583C41.397 65.946 41.3168 66.0033 41.2301 66.0033L41.2282 66.0024Z" fill="black"/>
<path d="M148.272 30.0091C150.192 30.0091 151.749 28.4503 151.749 26.5275C151.749 24.6047 150.192 23.0459 148.272 23.0459C146.351 23.0459 144.794 24.6047 144.794 26.5275C144.794 28.4503 146.351 30.0091 148.272 30.0091Z" fill="#5479F7"/>
<path d="M230.184 57.1385H159.278V93.5317H230.184V57.1385Z" fill="white"/>
<path d="M230.184 93.7349H159.278C159.166 93.7349 159.075 93.6444 159.075 93.5318V57.1386C159.075 57.0268 159.165 56.9354 159.278 56.9354H230.184C230.296 56.9354 230.387 57.0259 230.387 57.1386V93.5318C230.387 93.6435 230.296 93.7349 230.184 93.7349ZM159.481 93.3286H229.981V57.3418H159.481V93.3286Z" fill="black"/>
<path d="M231.616 60.0268C242.352 49.2784 242.352 31.8518 231.616 21.1034C220.88 10.355 203.474 10.355 192.738 21.1034C182.002 31.8518 182.002 49.2784 192.738 60.0268C203.474 70.7752 220.88 70.7751 231.616 60.0268Z" fill="white"/>
<path d="M212.177 68.2917C196.906 68.2917 184.483 55.854 184.483 40.5655C184.483 25.277 196.906 12.8394 212.177 12.8394C227.447 12.8394 239.87 25.277 239.87 40.5655C239.87 55.854 227.447 68.2917 212.177 68.2917ZM212.177 13.2457C197.13 13.2457 184.889 25.5014 184.889 40.5655C184.889 55.6296 197.13 67.8853 212.177 67.8853C227.223 67.8853 239.464 55.6296 239.464 40.5655C239.464 25.5014 227.223 13.2457 212.177 13.2457Z" fill="black"/>
<path d="M212.177 24.1956C212.065 24.1956 211.974 24.1051 211.974 23.9924V18.5087C211.974 18.397 212.064 18.3055 212.177 18.3055C212.289 18.3055 212.379 18.396 212.379 18.5087V23.9924C212.379 24.1042 212.289 24.1956 212.177 24.1956Z" fill="black"/>
<path d="M212.177 62.8255C212.065 62.8255 211.974 62.735 211.974 62.6223V57.1386C211.974 57.0268 212.064 56.9354 212.177 56.9354C212.289 56.9354 212.379 57.0259 212.379 57.1386V62.6223C212.379 62.7341 212.289 62.8255 212.177 62.8255Z" fill="black"/>
<path d="M195.623 40.7686H190.146C190.034 40.7686 189.943 40.6781 189.943 40.5655C189.943 40.4528 190.033 40.3623 190.146 40.3623H195.623C195.735 40.3623 195.826 40.4528 195.826 40.5655C195.826 40.6781 195.736 40.7686 195.623 40.7686Z" fill="black"/>
<path d="M234.208 40.7686H228.731C228.619 40.7686 228.528 40.6781 228.528 40.5655C228.528 40.4528 228.618 40.3623 228.731 40.3623H234.208C234.319 40.3623 234.411 40.4528 234.411 40.5655C234.411 40.6781 234.32 40.7686 234.208 40.7686Z" fill="black"/>
<path d="M233.291 30.4763C230.896 25.4617 226.769 21.438 221.688 19.1699L212.177 40.5646L233.291 30.4763Z" fill="#E2EAFF"/>
<path d="M207.693 50.9355C207.665 50.9355 207.637 50.93 207.611 50.918C207.508 50.8727 207.462 50.7527 207.507 50.6502L211.991 40.4834C211.999 40.4658 212.009 40.4501 212.021 40.4363L224.59 25.2457C224.661 25.1598 224.789 25.1468 224.875 25.2189C224.962 25.2909 224.974 25.4184 224.902 25.5052L212.352 40.6745L207.88 50.8155C207.847 50.8912 207.772 50.9364 207.695 50.9364L207.693 50.9355Z" fill="black"/>
<path d="M169.789 22.8483H165.534V89.0122H169.789V22.8483Z" fill="#E2EAFF"/>
<path d="M176.732 89.2153C176.62 89.2153 176.529 89.1248 176.529 89.0122V47.3791C176.529 47.2673 176.619 47.1759 176.732 47.1759C176.844 47.1759 176.935 47.2664 176.935 47.3791V89.0122C176.935 89.1239 176.844 89.2153 176.732 89.2153Z" fill="#E2EAFF"/>
<path d="M184.534 89.2153C184.422 89.2153 184.331 89.1248 184.331 89.0122V61.5741C184.331 61.4624 184.421 61.371 184.534 61.371C184.646 61.371 184.736 61.4615 184.736 61.5741V89.0122C184.736 89.1239 184.646 89.2153 184.534 89.2153Z" fill="#E2EAFF"/>
<path d="M192.335 89.2153C192.223 89.2153 192.132 89.1248 192.132 89.0122V67.0126C192.132 66.9009 192.222 66.8094 192.335 66.8094C192.447 66.8094 192.537 66.9 192.537 67.0126V89.0122C192.537 89.1239 192.447 89.2153 192.335 89.2153Z" fill="#E2EAFF"/>
<path d="M200.136 89.2154C200.025 89.2154 199.933 89.1249 199.933 89.0122V78.7236C199.933 78.6118 200.024 78.5204 200.136 78.5204C200.249 78.5204 200.339 78.6109 200.339 78.7236V89.0122C200.339 89.124 200.249 89.2154 200.136 89.2154Z" fill="#E2EAFF"/>
<path d="M207.937 89.2154C207.825 89.2154 207.734 89.1249 207.734 89.0122V73.3405C207.734 73.2288 207.825 73.1373 207.937 73.1373C208.05 73.1373 208.14 73.2278 208.14 73.3405V89.0122C208.14 89.124 208.05 89.2154 207.937 89.2154Z" fill="#E2EAFF"/>
<path d="M215.739 89.2154C215.627 89.2154 215.536 89.1249 215.536 89.0122V78.3071C215.536 78.1953 215.626 78.1039 215.739 78.1039C215.851 78.1039 215.942 78.1944 215.942 78.3071V89.0122C215.942 89.124 215.851 89.2154 215.739 89.2154Z" fill="#E2EAFF"/>
<path d="M223.54 89.2154C223.428 89.2154 223.337 89.1249 223.337 89.0123V74.6408C223.337 74.529 223.427 74.4376 223.54 74.4376C223.652 74.4376 223.743 74.5281 223.743 74.6408V89.0123C223.743 89.124 223.652 89.2154 223.54 89.2154Z" fill="#E2EAFF"/>
<path d="M162.268 26.7307H154.767C154.656 26.7307 154.564 26.6402 154.564 26.5275C154.564 26.4148 154.655 26.3243 154.767 26.3243H162.268C162.379 26.3243 162.47 26.4148 162.47 26.5275C162.47 26.6402 162.38 26.7307 162.268 26.7307Z" fill="black"/>
<path d="M16.4374 62.8255H0.202931C0.0913191 62.8255 0 62.735 0 62.6223V19.1708C0 19.0591 0.0903967 18.9677 0.202931 18.9677C0.315466 18.9677 0.405863 19.0582 0.405863 19.1708V62.42H16.4374C16.549 62.42 16.6404 62.5105 16.6404 62.6232C16.6404 62.7359 16.55 62.8264 16.4374 62.8264V62.8255Z" fill="black"/>
<path d="M252.797 128H232.281C232.169 128 232.078 127.91 232.078 127.797C232.078 127.685 232.168 127.594 232.281 127.594H252.594V40.7688H242.892C242.78 40.7688 242.689 40.6783 242.689 40.5656C242.689 40.4529 242.779 40.3624 242.892 40.3624H252.797C252.909 40.3624 253 40.4529 253 40.5656V127.798C253 127.91 252.909 128.001 252.797 128.001V128Z" fill="black"/>
</g>
<defs>
<clipPath id="clip0_6_7368">
<rect width="253" height="169" fill="white"/>
</clipPath>
</defs>
</svg>
