<svg width="35" height="35" viewBox="0 0 35 35" fill="none" xmlns="http://www.w3.org/2000/svg">
<path d="M32.8695 0.428467H2.36858C1.86669 0.428467 1.38535 0.627842 1.03046 0.982732C0.675572 1.33762 0.476196 1.81896 0.476196 2.32085V32.8223C0.476323 33.3241 0.675754 33.8053 1.03063 34.1601C1.38551 34.5149 1.86677 34.7142 2.36858 34.7142H18.7891V21.437H14.321V16.2628H18.7891V12.4466C18.7891 8.01799 21.4938 5.60704 25.4443 5.60704C27.3367 5.60704 28.9629 5.74751 29.4371 5.81085V10.4389L26.6971 10.4404C24.5486 10.4404 24.1329 11.4613 24.1329 12.9594V16.2632H29.2567L28.5895 21.4375H24.1329V34.7142H32.87C33.3718 34.7141 33.853 34.5146 34.2078 34.1597C34.5626 33.8049 34.7619 33.3236 34.7619 32.8218V2.32085C34.7619 1.81896 34.5625 1.33762 34.2076 0.982732C33.8528 0.627842 33.3714 0.428467 32.8695 0.428467Z" fill="white"/>
</svg>
