<svg width="48" height="49" viewBox="0 0 48 49" fill="none" xmlns="http://www.w3.org/2000/svg">
<path d="M12.2353 25.3291C13.0719 25.9858 14.0286 26.3139 15.1048 26.3139C16.4643 26.2639 17.5972 25.7753 18.5038 24.8491C18.941 24.1934 19.2219 23.5201 19.3467 22.8301C19.4215 22.141 19.4591 21.5596 19.4591 21.0882C19.4591 19.052 18.9381 16.9987 17.8967 14.9282C17.4081 13.9358 16.7653 13.1277 15.9676 12.5044C15.1534 11.9158 14.2176 11.6039 13.1595 11.5706C11.76 11.6039 10.5957 12.1687 9.6686 13.2625C8.88574 14.4072 8.51145 15.6863 8.54574 17.0991C8.54574 18.9677 9.09193 20.9125 10.1857 22.9315C10.7024 23.8592 11.3992 24.6744 12.2353 25.3291ZM15.3719 33.1667C14.9961 32.6722 14.663 32.1467 14.3762 31.5958C14.0362 31.0563 13.8667 30.4053 13.8667 29.6453C13.8667 29.1896 13.931 28.8091 14.0605 28.5048C14.1649 28.2092 14.2702 27.9138 14.3762 27.6187C13.8254 27.6843 13.2714 27.7182 12.7167 27.7201C10.2553 27.6906 8.31812 26.9929 6.90479 25.6306V34.8391C8.15468 34.2647 9.47377 33.8548 10.8291 33.6196C12.6524 33.351 14.1667 33.2001 15.3719 33.1667ZM16.781 34.6258C16.3956 34.5891 16.0086 34.5721 15.6215 34.5748C15.3581 34.5415 14.6838 34.5748 13.5986 34.6763C12.4881 34.8364 11.3913 35.0804 10.3176 35.4063C10.0543 35.5077 9.68431 35.6582 9.20764 35.8601C8.7305 36.0787 8.24526 36.3891 7.7524 36.7929C7.43085 37.0779 7.14611 37.4018 6.90479 37.7572V39.1615C6.90529 39.7945 7.15694 40.4014 7.60449 40.8491C8.05204 41.2967 8.65893 41.5485 9.29193 41.5491H22.3043C22.3048 41.5167 22.3067 41.4858 22.3067 41.4544C22.3067 40.1439 21.8786 39.002 21.0238 38.0272C20.1191 37.1034 18.7053 35.9701 16.781 34.6258Z" fill="white"/>
<path d="M38.8029 7.59399H9.29193C8.65885 7.59437 8.05182 7.84606 7.60421 8.29376C7.15661 8.74146 6.90504 9.34854 6.90479 9.98161V13.183C7.05526 13.023 7.21098 12.864 7.37383 12.7069C8.84193 11.4978 10.3681 10.7092 11.951 10.3388C13.5176 10.0197 14.9867 9.86066 16.3572 9.86066H26.6867L23.4967 11.7226H20.3115C20.6357 11.9235 21.001 12.2183 21.4062 12.6045C21.7953 13.0073 22.1767 13.503 22.5495 14.0907C22.9062 14.6449 23.2224 15.2997 23.4981 16.0559C23.7248 16.8111 23.8386 17.694 23.8386 18.7011C23.8081 20.5492 23.4 22.0269 22.6153 23.1354C22.242 23.6583 21.8333 24.1548 21.3919 24.6216C20.894 25.0942 20.3861 25.5562 19.8686 26.0073C19.5499 26.3402 19.264 26.703 19.0148 27.0907C18.7072 27.5102 18.5529 27.9973 18.5529 28.5516C18.5529 29.0892 18.711 29.5335 19.0262 29.8864C19.2698 30.1952 19.5307 30.4899 19.8076 30.7692L21.56 32.2054C22.6268 33.0725 23.5882 34.0617 24.4248 35.1526C25.1986 36.2445 25.601 37.6721 25.6324 39.4354C25.6324 40.1645 25.5381 40.8688 25.3505 41.5492H38.8029C39.436 41.5487 40.043 41.297 40.4906 40.8494C40.9383 40.4017 41.19 39.7947 41.1905 39.1616V9.98114C41.19 9.3481 40.9383 8.74114 40.4906 8.29356C40.0429 7.84598 39.4359 7.59437 38.8029 7.59399ZM40.6814 18.1259H35.2615V23.5464H32.6357V18.1259H27.2157V15.5002H32.6357V10.0807H35.2615V15.5002H40.6814V18.1259Z" fill="white"/>
</svg>
