<svg width="37" height="37" viewBox="0 0 37 37" fill="none" xmlns="http://www.w3.org/2000/svg">
<path d="M30.2381 0.714355H6.42858C3.05556 0.714355 0.476196 3.29372 0.476196 6.66674V30.4763C0.476196 33.8493 3.05556 36.4286 6.42858 36.4286H30.2381C33.6111 36.4286 36.1905 33.8493 36.1905 30.4763V6.66674C36.1905 3.29372 33.6111 0.714355 30.2381 0.714355ZM18.3333 12.6191C21.7064 12.6191 24.2857 15.1985 24.2857 18.5715C24.2857 21.9445 21.7064 24.5239 18.3333 24.5239C14.9603 24.5239 12.381 21.9445 12.381 18.5715C12.381 15.1985 14.9603 12.6191 18.3333 12.6191ZM25.873 8.65086C25.873 7.26197 27.0635 6.26991 28.254 6.26991C29.4445 6.26991 30.6349 7.46039 30.6349 8.65086C30.6349 9.84134 29.6429 11.0318 28.254 11.0318C26.8651 11.0318 25.873 10.0398 25.873 8.65086ZM30.2381 32.4604H6.42858C5.2381 32.4604 4.44445 31.6667 4.44445 30.4763V18.5715H8.4127C8.4127 24.1271 12.7778 28.4921 18.3333 28.4921C23.8889 28.4921 28.254 24.1271 28.254 18.5715H32.2222V30.4763C32.2222 31.6667 31.4286 32.4604 30.2381 32.4604Z" fill="white"/>
</svg>
