<svg width="36" height="35" viewBox="0 0 36 35" fill="none" xmlns="http://www.w3.org/2000/svg">
<path d="M32.5081 0.428467H3.29285C1.89571 0.428467 0.761902 1.53561 0.761902 2.89894V32.2404C0.761902 33.6056 1.89571 34.7142 3.29285 34.7142H32.5081C33.9062 34.7142 35.0476 33.6056 35.0476 32.2404V2.89894C35.0476 1.53561 33.9062 0.428467 32.5081 0.428467ZM10.9305 29.6447H5.84285V13.2832H10.9305V29.6447ZM8.38666 11.0461C7.99942 11.0461 7.61596 10.9698 7.25822 10.8215C6.90047 10.6733 6.57545 10.456 6.30171 10.1821C6.02797 9.90816 5.81089 9.58299 5.66287 9.22515C5.51485 8.86731 5.43879 8.48381 5.43904 8.09656C5.43904 7.31487 5.74957 6.56519 6.30231 6.01245C6.85505 5.45971 7.60473 5.14918 8.38643 5.14918C9.16812 5.14918 9.9178 5.45971 10.4705 6.01245C11.0233 6.56519 11.3338 7.31487 11.3338 8.09656C11.3338 8.87841 11.0234 9.62827 10.4708 10.1813C9.91812 10.7344 9.16851 11.0455 8.38666 11.0461ZM29.9762 29.6447H24.8967V21.6885C24.8967 19.7904 24.8595 17.3499 22.2533 17.3499C19.6067 17.3499 19.2033 19.417 19.2033 21.5508V29.6451H14.12V13.2832H18.9986V15.5175H19.0681C19.7471 14.2318 21.4062 12.8751 23.8805 12.8751C29.0262 12.8751 29.9767 16.2628 29.9767 20.6699V29.6447H29.9762Z" fill="white"/>
</svg>
