<svg width="37" height="39" viewBox="0 0 37 39" fill="none" xmlns="http://www.w3.org/2000/svg">
<path d="M35.8495 23.5211C36.1138 22.3111 36.2548 21.0564 36.2548 19.7673C36.2548 10.1087 28.4252 2.27827 18.7657 2.27827C17.7467 2.27827 16.7486 2.36684 15.7757 2.53493C14.1611 1.51534 12.2901 0.975337 10.3805 0.977792C4.78 0.977792 0.238098 5.51779 0.238098 11.1206C0.238098 12.9921 0.747146 14.744 1.63286 16.2483C1.39697 17.4066 1.27827 18.5857 1.27857 19.7678C1.27857 29.4259 9.10715 37.2559 18.7657 37.2559C19.8605 37.2559 20.93 37.1535 21.97 36.963C23.4436 37.7541 25.0904 38.1673 26.7629 38.1654C32.3643 38.1654 36.9052 33.6268 36.9052 28.024C36.9069 26.4615 36.5455 24.92 35.8495 23.5211ZM27.7367 28.1259C26.9267 29.2692 25.731 30.1768 24.1833 30.8202C22.6486 31.4592 20.8114 31.7826 18.7171 31.7826C16.2067 31.7826 14.1005 31.3387 12.4567 30.4673C11.2819 29.8311 10.3129 28.973 9.57762 27.9121C8.83429 26.8411 8.45667 25.7773 8.45667 24.7521C8.45667 24.1126 8.70334 23.5568 9.18715 23.1021C9.66619 22.6511 10.2795 22.4216 11.0124 22.4216C11.6129 22.4216 12.1319 22.6026 12.5524 22.9578C12.9548 23.2997 13.3005 23.8035 13.5767 24.4568C13.8871 25.1654 14.2257 25.7654 14.5824 26.2378C14.9243 26.6897 15.419 27.073 16.0495 27.3706C16.6824 27.6711 17.5376 27.824 18.589 27.824C20.0348 27.824 21.221 27.5149 22.111 26.9049C22.9829 26.3102 23.4062 25.5968 23.4062 24.7226C23.4062 24.0326 23.1843 23.4892 22.7295 23.0645C22.2543 22.6197 21.6271 22.273 20.8648 22.0359C20.07 21.7878 18.9895 21.5206 17.6552 21.2406C15.841 20.8521 14.2995 20.3911 13.0719 19.8692C11.8181 19.3359 10.8067 18.5959 10.0681 17.6706C9.31762 16.7297 8.93667 15.5506 8.93667 14.1649C8.93667 12.844 9.33572 11.654 10.1243 10.6259C10.9067 9.60541 12.0491 8.81303 13.5181 8.26922C14.9705 7.7316 16.6971 7.46112 18.6495 7.46112C20.2114 7.46112 21.5848 7.6416 22.7305 7.99684C23.8833 8.35779 24.8548 8.84017 25.6191 9.43827C26.3867 10.0392 26.96 10.6816 27.3176 11.3487C27.6819 12.023 27.8662 12.6949 27.8662 13.3445C27.8662 13.9692 27.6248 14.5359 27.1481 15.0316C26.6691 15.5292 26.0657 15.7811 25.3524 15.7811C24.7048 15.7811 24.1976 15.624 23.8462 15.313C23.5186 15.0235 23.1786 14.5721 22.8029 13.923C22.3662 13.0954 21.8395 12.4421 21.2338 11.9811C20.6457 11.5345 19.6629 11.3078 18.3143 11.3078C17.059 11.3078 16.0395 11.5587 15.2838 12.0554C14.5538 12.5335 14.2 13.0811 14.2 13.7321C14.2 14.1306 14.3138 14.463 14.5481 14.7492C14.7981 15.054 15.1471 15.3183 15.5914 15.5416C16.051 15.7721 16.5238 15.9564 16.9981 16.0868C17.4857 16.2226 18.2995 16.4226 19.419 16.6802C20.8329 16.9854 22.1343 17.3249 23.2838 17.693C24.4481 18.0659 25.4552 18.5259 26.2757 19.0602C27.1138 19.6045 27.7771 20.3059 28.249 21.1421C28.72 21.9826 28.9586 23.0173 28.9586 24.2216C28.9586 25.6626 28.5476 26.9759 27.7367 28.1259Z" fill="white"/>
</svg>
