<svg width="12" height="13" viewBox="0 0 12 13" fill="none" xmlns="http://www.w3.org/2000/svg">
<path d="M6.00923 0.509224H6C2.68615 0.509224 0 3.19331 0 6.50461C0 9.80669 2.68615 12.5 6 12.5C9.30462 12.4908 12 9.80669 12 6.50461C11.9908 3.19331 9.30462 0.509224 6 0.5L6.00923 0.509224ZM8.88923 4.33705C9.19385 4.55842 9.24923 4.99193 9.01846 5.30553L6.33231 8.8751V8.86587C5.86154 9.47464 4.98462 9.58532 4.36615 9.11491C4.32 9.07802 4.27385 9.04112 4.22769 8.995L2.84308 7.61145L2.83385 7.60223C2.55692 7.32552 2.55692 6.89201 2.83385 6.6236C3.10154 6.34689 3.53539 6.34689 3.81323 6.6236L4.82862 7.6382L4.81939 7.62898C4.99477 7.80423 5.29015 7.80423 5.46554 7.61975C5.47477 7.60131 5.49323 7.58286 5.50246 7.56441L7.85631 4.40992H7.84708C8.06861 4.10553 8.50246 4.04097 8.80708 4.26234L8.88923 4.33705Z" fill="#0A8043"/>
</svg>
