<svg width="38" height="31" viewBox="0 0 38 31" fill="none" xmlns="http://www.w3.org/2000/svg">
<path d="M37.5238 4.19999C36.1509 4.80821 34.6945 5.20724 33.2033 5.3838C34.774 4.44399 35.9494 2.96513 36.5105 1.22284C35.0341 2.0993 33.4185 2.71647 31.7338 3.04761C31.0299 2.29686 30.1794 1.69866 29.2349 1.29008C28.2903 0.881504 27.272 0.671257 26.2429 0.672368C22.0886 0.672368 18.72 4.03999 18.72 8.19522C18.72 8.78427 18.7867 9.35903 18.9152 9.90999C12.6629 9.59618 7.12 6.60094 3.40952 2.04903C2.74051 3.19716 2.38896 4.50259 2.39095 5.83142C2.38996 7.06999 2.69494 8.28963 3.27878 9.38197C3.86263 10.4743 4.70725 11.4055 5.73762 12.0928C4.54319 12.0549 3.37509 11.7323 2.33047 11.1519C2.32952 11.1833 2.32952 11.2143 2.32952 11.2467C2.32952 14.8905 4.92238 17.9309 8.36333 18.6228C7.25536 18.9228 6.09367 18.9668 4.96619 18.7514C5.92333 21.7395 8.70143 23.9152 11.9933 23.9762C9.32853 26.0674 6.03786 27.2017 2.65047 27.1967C2.04333 27.1967 1.44476 27.1614 0.855713 27.0914C4.2954 29.3015 8.29864 30.4746 12.3871 30.4705C26.2243 30.4705 33.791 19.0081 33.791 9.06808C33.791 8.74237 33.7833 8.41713 33.769 8.0938C35.2426 7.02994 36.5142 5.71127 37.5238 4.19999Z" fill="white"/>
</svg>
